# MagicaVoxel @ Ephtracy

# group
o 

# material
mtllib 210426  house.mtl
usemtl palette

# normals
vn -1 0 0
vn 1 0 0
vn 0 0 1
vn 0 0 -1
vn 0 -1 0
vn 0 1 0

# texcoords
vt 0.166016 0.5
vt 0.173828 0.5
vt 0.248047 0.5
vt 0.279297 0.5

# verts
v 0.1 2.9 -0.2
v 0.1 2.9 -1.3
v 0.1 3 -0.2
v 0.1 3 -1.3
v 0.2 2 -0.2
v 0.2 2 -1.3
v 0.2 2.9 -0.2
v 0.2 2.9 -1.3
v 0.2 3 -0.2
v 0.2 3 -1.3
v 0.2 3.1 -0.2
v 0.2 3.1 -1.3
v 0.3 3.1 -0.2
v 0.3 3.1 -1.3
v 0.3 3.2 -0.2
v 0.3 3.2 -1.3
v 0.4 3.2 -0.2
v 0.4 3.2 -1.3
v 0.4 3.3 -0.2
v 0.4 3.3 -1.3
v 0.5 3.3 -0.2
v 0.5 3.3 -1.3
v 0.5 3.4 -0.2
v 0.5 3.4 -1.3
v 0.6 3.4 -0.2
v 0.6 3.4 -1.3
v 0.6 3.5 -0.2
v 0.6 3.5 -1.3
v 0.7 2 -0.2
v 0.7 2 -0.3
v 0.7 2.7 -0.2
v 0.7 2.7 -0.3
v 1.2 2 -0.3
v 1.2 2 -1.2
v 1.2 2.4 -0.2
v 1.2 2.4 -0.3
v 1.2 2.7 -0.2
v 1.2 2.7 -0.3
v 1.2 2.9 -0.3
v 1.2 2.9 -1.2
v 0.3 2 -0.2
v 0.3 2 -1.2
v 0.3 2.7 -0.2
v 0.3 2.7 -0.3
v 0.3 2.9 -0.3
v 0.3 2.9 -1.2
v 0.8 2.4 -0.2
v 0.8 2.4 -0.3
v 0.8 2.7 -0.2
v 0.8 2.7 -0.3
v 0.9 3.4 -0.2
v 0.9 3.4 -1.3
v 0.9 3.5 -0.2
v 0.9 3.5 -1.3
v 1 3.3 -0.2
v 1 3.3 -1.3
v 1 3.4 -0.2
v 1 3.4 -1.3
v 1.1 3.2 -0.2
v 1.1 3.2 -1.3
v 1.1 3.3 -0.2
v 1.1 3.3 -1.3
v 1.2 3.1 -0.2
v 1.2 3.1 -1.3
v 1.2 3.2 -0.2
v 1.2 3.2 -1.3
v 1.3 2 -0.2
v 1.3 2 -1.3
v 1.3 2.9 -0.2
v 1.3 2.9 -1.3
v 1.3 3 -0.2
v 1.3 3 -1.3
v 1.3 3.1 -0.2
v 1.3 3.1 -1.3
v 1.4 2.9 -0.2
v 1.4 2.9 -1.3
v 1.4 3 -0.2
v 1.4 3 -1.3
v 0.1 2.9 -0.2
v 0.1 3 -0.2
v 0.2 2 -0.2
v 0.2 2.9 -0.2
v 0.2 3 -0.2
v 0.2 3.1 -0.2
v 0.3 2 -0.2
v 0.3 2.7 -0.2
v 0.3 3 -0.2
v 0.3 3.1 -0.2
v 0.3 3.2 -0.2
v 0.4 3.1 -0.2
v 0.4 3.2 -0.2
v 0.4 3.3 -0.2
v 0.5 3.2 -0.2
v 0.5 3.3 -0.2
v 0.5 3.4 -0.2
v 0.6 3.3 -0.2
v 0.6 3.4 -0.2
v 0.6 3.5 -0.2
v 0.7 2 -0.2
v 0.7 2.7 -0.2
v 0.8 2.4 -0.2
v 0.8 2.7 -0.2
v 0.9 3.3 -0.2
v 0.9 3.4 -0.2
v 0.9 3.5 -0.2
v 1 3.2 -0.2
v 1 3.3 -0.2
v 1 3.4 -0.2
v 1.1 3.1 -0.2
v 1.1 3.2 -0.2
v 1.1 3.3 -0.2
v 1.2 2.4 -0.2
v 1.2 2.7 -0.2
v 1.2 3 -0.2
v 1.2 3.1 -0.2
v 1.2 3.2 -0.2
v 1.3 2 -0.2
v 1.3 2.9 -0.2
v 1.3 3 -0.2
v 1.3 3.1 -0.2
v 1.4 2.9 -0.2
v 1.4 3 -0.2
v 0.3 2 -1.2
v 0.3 2.9 -1.2
v 1.2 2 -1.2
v 1.2 2.9 -1.2
v 0.3 2.7 -0.3
v 0.3 2.9 -0.3
v 0.7 2 -0.3
v 0.7 2.7 -0.3
v 0.8 2.4 -0.3
v 0.8 2.7 -0.3
v 1.2 2 -0.3
v 1.2 2.4 -0.3
v 1.2 2.7 -0.3
v 1.2 2.9 -0.3
v 0.1 2.9 -1.3
v 0.1 3 -1.3
v 0.2 2 -1.3
v 0.2 2.9 -1.3
v 0.2 3 -1.3
v 0.2 3.1 -1.3
v 0.3 2.9 -1.3
v 0.3 3 -1.3
v 0.3 3.1 -1.3
v 0.3 3.2 -1.3
v 0.4 3.1 -1.3
v 0.4 3.2 -1.3
v 0.4 3.3 -1.3
v 0.5 3.2 -1.3
v 0.5 3.3 -1.3
v 0.5 3.4 -1.3
v 0.6 3.3 -1.3
v 0.6 3.4 -1.3
v 0.6 3.5 -1.3
v 0.9 3.3 -1.3
v 0.9 3.4 -1.3
v 0.9 3.5 -1.3
v 1 3.2 -1.3
v 1 3.3 -1.3
v 1 3.4 -1.3
v 1.1 3.1 -1.3
v 1.1 3.2 -1.3
v 1.1 3.3 -1.3
v 1.2 2.9 -1.3
v 1.2 3 -1.3
v 1.2 3.1 -1.3
v 1.2 3.2 -1.3
v 1.3 2 -1.3
v 1.3 2.9 -1.3
v 1.3 3 -1.3
v 1.3 3.1 -1.3
v 1.4 2.9 -1.3
v 1.4 3 -1.3
v 0.2 2 -0.2
v 0.3 2 -0.2
v 0.7 2 -0.2
v 1.3 2 -0.2
v 0.7 2 -0.3
v 1.2 2 -0.3
v 0.3 2 -1.2
v 1.2 2 -1.2
v 0.2 2 -1.3
v 1.3 2 -1.3
v 0.3 2.7 -0.2
v 0.7 2.7 -0.2
v 0.8 2.7 -0.2
v 1.2 2.7 -0.2
v 0.3 2.7 -0.3
v 0.7 2.7 -0.3
v 0.8 2.7 -0.3
v 1.2 2.7 -0.3
v 0.1 2.9 -0.2
v 0.2 2.9 -0.2
v 1.3 2.9 -0.2
v 1.4 2.9 -0.2
v 0.3 2.9 -0.3
v 1.2 2.9 -0.3
v 0.3 2.9 -1.2
v 1.2 2.9 -1.2
v 0.1 2.9 -1.3
v 0.2 2.9 -1.3
v 1.3 2.9 -1.3
v 1.4 2.9 -1.3
v 0.8 2.4 -0.2
v 1.2 2.4 -0.2
v 0.8 2.4 -0.3
v 1.2 2.4 -0.3
v 0.1 3 -0.2
v 0.2 3 -0.2
v 1.3 3 -0.2
v 1.4 3 -0.2
v 0.1 3 -1.3
v 0.2 3 -1.3
v 1.3 3 -1.3
v 1.4 3 -1.3
v 0.2 3.1 -0.2
v 0.3 3.1 -0.2
v 1.2 3.1 -0.2
v 1.3 3.1 -0.2
v 0.2 3.1 -1.3
v 0.3 3.1 -1.3
v 1.2 3.1 -1.3
v 1.3 3.1 -1.3
v 0.3 3.2 -0.2
v 0.4 3.2 -0.2
v 1.1 3.2 -0.2
v 1.2 3.2 -0.2
v 0.3 3.2 -1.3
v 0.4 3.2 -1.3
v 1.1 3.2 -1.3
v 1.2 3.2 -1.3
v 0.4 3.3 -0.2
v 0.5 3.3 -0.2
v 1 3.3 -0.2
v 1.1 3.3 -0.2
v 0.4 3.3 -1.3
v 0.5 3.3 -1.3
v 1 3.3 -1.3
v 1.1 3.3 -1.3
v 0.5 3.4 -0.2
v 0.6 3.4 -0.2
v 0.9 3.4 -0.2
v 1 3.4 -0.2
v 0.5 3.4 -1.3
v 0.6 3.4 -1.3
v 0.9 3.4 -1.3
v 1 3.4 -1.3
v 0.6 3.5 -0.2
v 0.9 3.5 -0.2
v 0.6 3.5 -1.3
v 0.9 3.5 -1.3

# faces
f 3/2/1 2/2/1 1/2/1
f 4/2/1 2/2/1 3/2/1
f 7/4/1 6/4/1 5/4/1
f 8/4/1 6/4/1 7/4/1
f 11/1/1 10/1/1 9/1/1
f 12/1/1 10/1/1 11/1/1
f 15/2/1 14/2/1 13/2/1
f 16/2/1 14/2/1 15/2/1
f 19/1/1 18/1/1 17/1/1
f 20/1/1 18/1/1 19/1/1
f 23/2/1 22/2/1 21/2/1
f 24/2/1 22/2/1 23/2/1
f 27/1/1 26/1/1 25/1/1
f 28/1/1 26/1/1 27/1/1
f 31/4/1 30/4/1 29/4/1
f 32/4/1 30/4/1 31/4/1
f 36/4/1 34/4/1 33/4/1
f 37/4/1 36/4/1 35/4/1
f 38/4/1 34/4/1 36/4/1
f 38/4/1 36/4/1 37/4/1
f 39/4/1 34/4/1 38/4/1
f 40/4/1 34/4/1 39/4/1
f 41/4/2 42/4/2 43/4/2
f 43/4/2 42/4/2 44/4/2
f 44/4/2 42/4/2 45/4/2
f 45/4/2 42/4/2 46/4/2
f 47/4/2 48/4/2 49/4/2
f 49/4/2 48/4/2 50/4/2
f 51/1/2 52/1/2 53/1/2
f 53/1/2 52/1/2 54/1/2
f 55/2/2 56/2/2 57/2/2
f 57/2/2 56/2/2 58/2/2
f 59/1/2 60/1/2 61/1/2
f 61/1/2 60/1/2 62/1/2
f 63/2/2 64/2/2 65/2/2
f 65/2/2 64/2/2 66/2/2
f 67/4/2 68/4/2 69/4/2
f 69/4/2 68/4/2 70/4/2
f 71/1/2 72/1/2 73/1/2
f 73/1/2 72/1/2 74/1/2
f 75/2/2 76/2/2 77/2/2
f 77/2/2 76/2/2 78/2/2
f 82/2/3 80/2/3 79/2/3
f 83/2/3 80/2/3 82/2/3
f 85/4/3 82/4/3 81/4/3
f 86/4/3 82/4/3 85/4/3
f 87/1/3 84/1/3 83/1/3
f 87/3/3 83/3/3 82/3/3
f 88/1/3 84/1/3 87/1/3
f 90/2/3 89/2/3 88/2/3
f 90/3/3 88/3/3 87/3/3
f 91/2/3 89/2/3 90/2/3
f 93/3/3 91/3/3 90/3/3
f 93/1/3 92/1/3 91/1/3
f 94/1/3 92/1/3 93/1/3
f 96/3/3 94/3/3 93/3/3
f 96/2/3 95/2/3 94/2/3
f 97/2/3 95/2/3 96/2/3
f 100/4/3 82/4/3 86/4/3
f 101/4/3 100/4/3 99/4/3
f 102/4/3 82/4/3 100/4/3
f 102/4/3 100/4/3 101/4/3
f 103/3/3 96/3/3 93/3/3
f 103/3/3 97/3/3 96/3/3
f 104/1/3 98/1/3 97/1/3
f 104/3/3 97/3/3 103/3/3
f 105/1/3 98/1/3 104/1/3
f 106/3/3 103/3/3 93/3/3
f 106/3/3 93/3/3 90/3/3
f 107/2/3 104/2/3 103/2/3
f 107/3/3 103/3/3 106/3/3
f 108/2/3 104/2/3 107/2/3
f 109/3/3 90/3/3 87/3/3
f 109/3/3 106/3/3 90/3/3
f 110/1/3 107/1/3 106/1/3
f 110/3/3 106/3/3 109/3/3
f 111/1/3 107/1/3 110/1/3
f 112/4/3 101/4/3 99/4/3
f 113/4/3 82/4/3 102/4/3
f 114/3/3 87/3/3 82/3/3
f 114/3/3 109/3/3 87/3/3
f 115/2/3 110/2/3 109/2/3
f 115/3/3 109/3/3 114/3/3
f 116/2/3 110/2/3 115/2/3
f 117/4/3 113/4/3 112/4/3
f 117/4/3 112/4/3 99/4/3
f 118/4/3 82/4/3 113/4/3
f 118/4/3 113/4/3 117/4/3
f 118/3/3 114/3/3 82/3/3
f 119/1/3 115/1/3 114/1/3
f 119/3/3 114/3/3 118/3/3
f 120/1/3 115/1/3 119/1/3
f 121/2/3 119/2/3 118/2/3
f 122/2/3 119/2/3 121/2/3
f 125/4/3 124/4/3 123/4/3
f 126/4/3 124/4/3 125/4/3
f 127/4/4 128/4/4 130/4/4
f 129/4/4 130/4/4 131/4/4
f 130/4/4 128/4/4 132/4/4
f 131/4/4 130/4/4 132/4/4
f 129/4/4 131/4/4 133/4/4
f 133/4/4 131/4/4 134/4/4
f 132/4/4 128/4/4 135/4/4
f 135/4/4 128/4/4 136/4/4
f 137/2/4 138/2/4 140/2/4
f 140/2/4 138/2/4 141/2/4
f 139/4/4 140/4/4 143/4/4
f 140/2/4 141/2/4 143/2/4
f 141/1/4 142/1/4 144/1/4
f 143/2/4 141/2/4 144/2/4
f 144/1/4 142/1/4 145/1/4
f 143/3/4 144/3/4 147/3/4
f 145/2/4 146/2/4 147/2/4
f 144/3/4 145/3/4 147/3/4
f 147/2/4 146/2/4 148/2/4
f 147/3/4 148/3/4 150/3/4
f 148/1/4 149/1/4 150/1/4
f 150/1/4 149/1/4 151/1/4
f 150/3/4 151/3/4 153/3/4
f 151/2/4 152/2/4 153/2/4
f 153/2/4 152/2/4 154/2/4
f 150/3/4 153/3/4 156/3/4
f 153/3/4 154/3/4 156/3/4
f 154/1/4 155/1/4 157/1/4
f 156/3/4 154/3/4 157/3/4
f 157/1/4 155/1/4 158/1/4
f 147/3/4 150/3/4 159/3/4
f 150/3/4 156/3/4 159/3/4
f 156/2/4 157/2/4 160/2/4
f 159/3/4 156/3/4 160/3/4
f 160/2/4 157/2/4 161/2/4
f 143/3/4 147/3/4 162/3/4
f 147/3/4 159/3/4 162/3/4
f 159/1/4 160/1/4 163/1/4
f 162/3/4 159/3/4 163/3/4
f 163/1/4 160/1/4 164/1/4
f 139/4/4 143/4/4 165/4/4
f 143/3/4 162/3/4 165/3/4
f 165/3/4 162/3/4 166/3/4
f 162/2/4 163/2/4 167/2/4
f 166/3/4 162/3/4 167/3/4
f 167/2/4 163/2/4 168/2/4
f 139/4/4 165/4/4 169/4/4
f 165/2/4 166/2/4 170/2/4
f 169/4/4 165/4/4 170/4/4
f 166/1/4 167/1/4 171/1/4
f 170/2/4 166/2/4 171/2/4
f 171/1/4 167/1/4 172/1/4
f 170/2/4 171/2/4 173/2/4
f 173/2/4 171/2/4 174/2/4
f 179/4/5 178/4/5 177/4/5
f 180/4/5 178/4/5 179/4/5
f 181/4/5 176/4/5 175/4/5
f 182/4/5 178/4/5 180/4/5
f 183/4/5 181/4/5 175/4/5
f 183/4/5 182/4/5 181/4/5
f 184/4/5 178/4/5 182/4/5
f 184/4/5 182/4/5 183/4/5
f 189/4/5 186/4/5 185/4/5
f 190/4/5 186/4/5 189/4/5
f 191/4/5 188/4/5 187/4/5
f 192/4/5 188/4/5 191/4/5
f 199/2/5 198/2/5 197/2/5
f 200/2/5 198/2/5 199/2/5
f 201/2/5 194/2/5 193/2/5
f 202/2/5 194/2/5 201/2/5
f 203/2/5 196/2/5 195/2/5
f 204/2/5 196/2/5 203/2/5
f 205/4/6 206/4/6 207/4/6
f 207/4/6 206/4/6 208/4/6
f 209/2/6 210/2/6 213/2/6
f 213/2/6 210/2/6 214/2/6
f 211/2/6 212/2/6 215/2/6
f 215/2/6 212/2/6 216/2/6
f 217/1/6 218/1/6 221/1/6
f 221/1/6 218/1/6 222/1/6
f 219/1/6 220/1/6 223/1/6
f 223/1/6 220/1/6 224/1/6
f 225/2/6 226/2/6 229/2/6
f 229/2/6 226/2/6 230/2/6
f 227/2/6 228/2/6 231/2/6
f 231/2/6 228/2/6 232/2/6
f 233/1/6 234/1/6 237/1/6
f 237/1/6 234/1/6 238/1/6
f 235/1/6 236/1/6 239/1/6
f 239/1/6 236/1/6 240/1/6
f 241/2/6 242/2/6 245/2/6
f 245/2/6 242/2/6 246/2/6
f 243/2/6 244/2/6 247/2/6
f 247/2/6 244/2/6 248/2/6
f 249/1/6 250/1/6 251/1/6
f 251/1/6 250/1/6 252/1/6
